<svg xmlns="http://www.w3.org/2000/svg" width="23.86" height="26.694" viewBox="0 0 23.86 26.694">
  <g id="bell_2_" data-name="bell (2)" transform="translate(0 0)">
    <g id="Group_13146" data-name="Group 13146" transform="translate(10.24 0)">
      <path id="Path_36466" data-name="Path 36466" d="M12.958,3.533a.423.423,0,0,1-.423-.423V1.691a.845.845,0,1,0-1.691,0v1.42a.423.423,0,1,1-.845,0V1.691a1.691,1.691,0,0,1,3.381,0v1.42A.422.422,0,0,1,12.958,3.533Z" transform="translate(-10 0)" fill="#fff"/>
    </g>
    <g id="Group_13147" data-name="Group 13147" transform="translate(8.972 23.313)">
      <path id="Path_36467" data-name="Path 36467" d="M11.458,23.381A2.962,2.962,0,0,1,8.5,20.423a.423.423,0,0,1,.845,0,2.113,2.113,0,1,0,4.226,0,.423.423,0,0,1,.845,0A2.962,2.962,0,0,1,11.458,23.381Z" transform="translate(-8.5 -20)" fill="#fff"/>
    </g>
    <g id="Group_13148" data-name="Group 13148" transform="translate(0 2.536)">
      <path id="Path_36468" data-name="Path 36468" d="M24.071,24.622H3.79a1.8,1.8,0,0,1-1.163-3.171,8.375,8.375,0,0,0,2.953-6.393V11.409a8.351,8.351,0,1,1,16.7,0v3.649a8.366,8.366,0,0,0,2.943,6.385,1.8,1.8,0,0,1-1.154,3.18ZM13.93,4.2a7.19,7.19,0,0,0-7.158,7.207v3.649a9.57,9.57,0,0,1-3.365,7.3.6.6,0,0,0,.383,1.061H24.071a.6.6,0,0,0,.388-1.057,9.578,9.578,0,0,1-3.37-7.306V11.409A7.19,7.19,0,0,0,13.93,4.2Z" transform="translate(-2 -3)" fill="#fff"/>
    </g>
  </g>
</svg>
