<svg xmlns="http://www.w3.org/2000/svg" xmlns:xlink="http://www.w3.org/1999/xlink" width="395" height="230" viewBox="0 0 395 230">
  <defs>
    <radialGradient id="radial-gradient" cx="0.5" cy="0.5" r="0.5" gradientUnits="objectBoundingBox">
      <stop offset="0" stop-color="#4d8d6e"/>
      <stop offset="0.281" stop-color="#5c8d75"/>
      <stop offset="0.803" stop-color="#3b6c54"/>
      <stop offset="1" stop-color="#8b8608"/>
    </radialGradient>
  </defs>
  <g id="Path_36479" data-name="Path 36479" fill="url(#radial-gradient)">
    <path d="M 280 217.5 L 115 217.5 C 58.4813117980957 217.5 12.5 171.5186920166016 12.5 115 C 12.5 58.4813117980957 58.4813117980957 12.5 115 12.5 L 280 12.5 C 336.5186767578125 12.5 382.5 58.4813117980957 382.5 115 C 382.5 171.5186920166016 336.5186767578125 217.5 280 217.5 Z" stroke="none"/>
    <path d="M 115 25 C 65.37384033203125 25 25 65.37384033203125 25 115 C 25 164.6261596679688 65.37384033203125 205 115 205 L 280 205 C 329.6261596679688 205 370 164.6261596679688 370 115 C 370 65.37384033203125 329.6261596679688 25 280 25 L 115 25 M 115 0 L 280 0 C 343.5127563476562 0 395 51.48722839355469 395 115 C 395 178.5127716064453 343.5127563476562 230 280 230 L 115 230 C 51.48724365234375 230 0 178.5127716064453 0 115 C 0 51.48722839355469 51.48724365234375 0 115 0 Z" stroke="none" fill="#343434"/>
  </g>
</svg>
