<svg xmlns="http://www.w3.org/2000/svg" width="18.715" height="18.468" viewBox="0 0 18.715 18.468">
  <path id="Subtraction_5" data-name="Subtraction 5" d="M28.1,30.74a9.235,9.235,0,1,1,9.357-9.234A9.307,9.307,0,0,1,28.1,30.74Zm-1.059-8.117h1.506l1.013,3.89H31.1l.9-3.89h1.838V21.4H32.278l.953-4.133H31.638L30.793,21.4H29.507L28.471,17.27H27.124L26.075,21.4h-1.3l-.854-4.133H22.333l.953,4.133H21.31v1.22h2.257l.9,3.89h1.543l1.036-3.889Zm3.171,1.6-.4-1.6h.73l-.327,1.6Zm-4.853-.013h0l-.328-1.587h.733ZM28.23,21.4h-.862l.436-1.638L28.23,21.4Z" transform="translate(-18.745 -12.272)" fill="#fff"/>
</svg>
