<svg xmlns="http://www.w3.org/2000/svg" width="38.127" height="38.127" viewBox="0 0 38.127 38.127">
  <path id="_ionicons_svg_ios-contact" d="M67.063,48A19.055,19.055,0,0,0,48.11,65.056a18.37,18.37,0,0,0,0,4.014A19.062,19.062,0,1,0,67.063,48ZM79.51,77.888c-2.081-.788-5.453-1.943-7.552-2.566-.22-.064-.247-.082-.247-.981a5.216,5.216,0,0,1,.6-2.135,10.652,10.652,0,0,0,.843-2.9A6.439,6.439,0,0,0,74.4,66.294a4.022,4.022,0,0,0-.037-2.53,1.625,1.625,0,0,1-.055-.156,16.481,16.481,0,0,1,.284-3.556,6.548,6.548,0,0,0-1.366-4.7,7.006,7.006,0,0,0-5.362-2.566h-1.6A7,7,0,0,0,60.95,55.35a6.52,6.52,0,0,0-1.375,4.7,16.482,16.482,0,0,1,.284,3.556c-.018.064-.037.11-.055.165a3.954,3.954,0,0,0-.037,2.53,6.539,6.539,0,0,0,1.246,3.015,11.092,11.092,0,0,0,.843,2.9,5.12,5.12,0,0,1,.348,2.163c0,.907-.037.917-.238.981-2.172.642-5.4,1.778-7.332,2.548a16.5,16.5,0,1,1,24.874-.018Z" transform="translate(-48 -48)" fill="#fff"/>
</svg>
